<?xml version="1.0" encoding="UTF-8" standalone="no"?>
<!-- Created with Inkscape (http://www.inkscape.org/) -->

<svg
   xmlns:dc="http://purl.org/dc/elements/1.1/"
   xmlns:cc="http://creativecommons.org/ns#"
   xmlns:rdf="http://www.w3.org/1999/02/22-rdf-syntax-ns#"
   xmlns:svg="http://www.w3.org/2000/svg"
   xmlns="http://www.w3.org/2000/svg"
   xmlns:sodipodi="http://sodipodi.sourceforge.net/DTD/sodipodi-0.dtd"
   xmlns:inkscape="http://www.inkscape.org/namespaces/inkscape"
   width="140mm"
   height="140mm"
   viewBox="0 0 140 140"
   version="1.1"
   id="svg8"
   inkscape:version="0.92.5 (2060ec1f9f, 2020-04-08)"
   sodipodi:docname="log.svg">
  <defs
     id="defs2" />
  <sodipodi:namedview
     id="base"
     pagecolor="#ffffff"
     bordercolor="#666666"
     borderopacity="1.0"
     inkscape:pageopacity="0.0"
     inkscape:pageshadow="2"
     inkscape:zoom="0.98994949"
     inkscape:cx="227.04829"
     inkscape:cy="317.25072"
     inkscape:document-units="mm"
     inkscape:current-layer="layer1"
     showgrid="false"
     inkscape:window-width="1848"
     inkscape:window-height="1016"
     inkscape:window-x="72"
     inkscape:window-y="27"
     inkscape:window-maximized="1" />
  <metadata
     id="metadata5">
    <rdf:RDF>
      <cc:Work
         rdf:about="">
        <dc:format>image/svg+xml</dc:format>
        <dc:type
           rdf:resource="http://purl.org/dc/dcmitype/StillImage" />
        <dc:title></dc:title>
      </cc:Work>
    </rdf:RDF>
  </metadata>
  <g
     inkscape:label="Layer 1"
     inkscape:groupmode="layer"
     id="layer1"
     transform="translate(0,-157)">
    <path
       style="opacity:1;fill:#00ff00;fill-opacity:1;stroke:#000000;stroke-width:0.26458332;stroke-opacity:1"
       id="path30"
       d="m 8.8478954,176.35815 c 0.7611959,0.5866 1.5696656,1.1117 2.3740176,1.63726 0.851663,0.58251 1.669846,1.21818 2.46639,1.87423 0.876328,0.68589 1.603414,1.52428 2.305692,2.38039 0.724762,0.86976 1.380667,1.79516 2.047953,2.70942 0.660949,0.93119 1.209824,1.93454 1.781208,2.92149 0.490822,0.81589 1.004661,1.6173 1.495629,2.4331 0.323958,0.59125 0.688699,1.15521 0.890823,1.80193 0.09542,0.32471 0.142189,0.65907 0.135921,0.99673 0,0 -3.583811,1.7481 -3.583811,1.7481 v 0 c 0.117072,-0.25655 -0.0013,-0.57461 -0.0387,-0.84141 -0.168086,-0.6223 -0.518753,-1.15987 -0.81949,-1.72493 -0.493406,-0.817 -0.990992,-1.63108 -1.484376,-2.44808 -0.562651,-0.9759 -1.10135,-1.96912 -1.758299,-2.88637 -0.662671,-0.90798 -1.316195,-1.82516 -2.035611,-2.68928 -0.693007,-0.83243 -1.406357,-1.64806 -2.269997,-2.31145 -0.7947467,-0.63924 -1.5969051,-1.27404 -2.4471129,-1.83834 -0.8111623,-0.53281 -1.6168201,-1.0742 -2.4104336,-1.63289 0,0 3.3501949,-2.1299 3.3501949,-2.1299 z"
       inkscape:connector-curvature="0" />
    <path
       style="opacity:1;fill:#00ff00;fill-opacity:1;stroke:#000000;stroke-width:0.26458332;stroke-opacity:1"
       id="path32"
       d="m 23.562158,165.07519 c 0.96846,0.49463 1.889099,1.07424 2.810668,1.64954 0.855482,0.5466 1.695613,1.11646 2.544187,1.67356 0.814681,0.60357 1.594221,1.24833 2.345846,1.92816 0.806733,0.67122 1.530713,1.43498 2.263241,2.18469 0.778513,0.78112 1.542674,1.5757 2.285169,2.39101 0.685686,0.73628 1.402831,1.44023 2.087697,2.17817 0.578067,0.59004 1.15882,1.17743 1.729809,1.77506 0.450781,0.3912 0.854369,0.83289 1.264232,1.26583 0.297418,0.33138 0.646192,0.61764 0.915829,0.9725 0.220456,0.18611 0.361812,0.43009 0.519181,0.66637 0.135692,0.15656 0.231349,0.32416 0.295588,0.52072 0.01214,0.0546 0.02429,0.10918 0.03643,0.16377 0,0 -3.624734,1.69332 -3.624734,1.69332 v 0 c 0.02516,0.018 0.05035,0.036 0.07551,0.054 -0.03394,-0.1632 -0.123021,-0.28123 -0.225944,-0.41229 -0.153992,-0.22712 -0.291311,-0.46036 -0.497699,-0.6482 -0.267994,-0.33798 -0.601538,-0.61907 -0.884783,-0.94419 -0.410818,-0.43043 -0.809606,-0.87317 -1.250717,-1.27353 -0.570045,-0.59996 -1.149757,-1.19014 -1.722721,-1.78668 -0.680585,-0.74132 -1.400804,-1.44243 -2.078246,-2.18604 -0.742815,-0.80876 -1.501095,-1.60246 -2.278018,-2.37864 -0.732657,-0.73998 -1.453586,-1.49578 -2.256496,-2.16116 -0.73942,-0.6647 -1.506816,-1.29709 -2.315149,-1.87696 -0.84384,-0.55705 -1.680718,-1.12462 -2.532105,-1.67022 -0.916423,-0.57311 -1.832389,-1.15614 -2.821907,-1.59753 0,0 3.315132,-2.18124 3.315132,-2.18124 z"
       inkscape:connector-curvature="0" />
    <path
       style="opacity:1;fill:#00ff00;fill-opacity:1;stroke:#000000;stroke-width:0.26458332;stroke-opacity:1"
       id="path34"
       d="m 15.018877,204.94671 c 0.774111,0.48278 1.591205,0.89105 2.363791,1.37599 0.528042,0.32713 1.08205,0.6066 1.623965,0.90872 0.59846,0.24121 1.173765,0.53645 1.785289,0.74417 0.646764,0.19974 1.263773,0.48006 1.9005,0.70586 0.627521,0.25687 1.265646,0.49553 1.924487,0.65826 0.626856,0.22482 1.281371,0.34283 1.927022,0.49799 0.603284,0.0928 1.180597,0.28845 1.784125,0.37932 0.615569,0.0262 1.213218,0.13558 1.81868,0.239 0.535059,0.0874 1.07741,0.10496 1.618345,0.11573 0.54139,0.0244 1.071729,0.16013 1.612641,0.21731 0.601337,0.0473 1.204886,0.0515 1.807725,0.0546 0.652354,0.0542 1.285584,-0.0542 1.92849,-0.14046 0.71932,-0.0441 1.426395,-0.15531 2.138495,-0.26088 0.718606,-0.12737 1.455311,-0.21063 2.165522,-0.38323 0.681186,-0.15804 1.343147,-0.3865 2.017302,-0.56875 0.666033,-0.27971 1.338369,-0.55687 1.991958,-0.86647 0.302821,-0.19457 0.636897,-0.33101 0.953408,-0.49991 0.110855,-0.0592 0.436493,-0.24916 0.327533,-0.18658 -3.18883,1.83129 -4.041135,2.39305 -2.738171,1.54699 0.641223,-0.41333 1.283679,-0.8209 1.90685,-1.26145 0.640048,-0.42821 1.277961,-0.85613 1.881179,-1.33543 0.576961,-0.53207 1.234507,-0.95926 1.866456,-1.42016 0.618582,-0.49257 1.236644,-0.9867 1.844278,-1.4929 0.585441,-0.4884 1.118679,-1.03413 1.702176,-1.52444 0.514503,-0.38801 0.944464,-0.86588 1.347152,-1.3651 0.356463,-0.43148 0.691364,-0.87978 0.996373,-1.349 0.312182,-0.47835 0.545844,-1.00056 0.744837,-1.53437 0.216111,-0.51746 0.346424,-1.06159 0.504772,-1.59763 0.160128,-0.5069 0.216641,-1.03418 0.248563,-1.5621 0.02228,-0.47701 0.01789,-0.9547 0.01815,-1.43209 0.0084,-0.52096 0.0087,-1.03771 -0.06048,-1.55458 -0.06835,-0.59119 -0.188365,-1.17452 -0.354245,-1.74584 -0.151929,-0.48601 -0.38735,-0.94215 -0.588534,-1.40979 -0.250436,-0.48663 -0.448395,-0.99843 -0.689165,-1.48885 -0.221533,-0.45478 -0.374378,-0.94229 -0.513893,-1.42785 -0.145364,-0.45124 -0.328168,-0.88872 -0.503809,-1.32874 -0.194876,-0.38823 -0.330226,-0.80124 -0.488402,-1.20494 -0.110392,-0.32941 -0.226489,-0.65295 -0.355822,-0.97524 -0.08543,-0.30872 -0.24959,-0.58683 -0.355203,-0.88824 -0.08052,-0.19104 -0.04982,-0.40627 -0.142584,-0.58985 -0.09692,-0.15027 -0.163309,-0.30819 -0.204433,-0.48188 -0.02225,-0.0908 -0.03473,-0.18159 -0.03579,-0.27487 0.06184,0.0948 -0.05976,0.0231 -0.106826,0.0118 -0.03623,0.0155 -0.01998,0.0261 0.0047,0.0638 -0.178877,0.0374 -0.259707,-0.17249 -0.334166,-0.3034 -0.0089,-0.0179 -0.0066,-0.0543 -0.0266,-0.0536 -0.01831,6.4e-4 0.01516,0.0373 0.0084,0.0543 -0.0071,0.0178 -0.119576,0.001 -0.138097,8.8e-4 -0.0218,0.008 -0.04359,0.015 -0.06538,0.0225 0,0 3.246882,-2.32976 3.246882,-2.32976 v 0 c 0.03804,0.0111 0.07607,0.0221 0.114106,0.0332 0.132149,0.0564 0.274757,0.13462 0.329584,0.27742 0.05509,0.071 -0.09737,-0.1143 0.101891,-0.0668 0.02969,0.0385 0.06036,0.0732 0.103055,0.0979 0.140147,0.0987 0.256228,0.21425 0.327681,0.37473 -7.93e-4,0.0704 -0.01116,0.1404 0,0.21068 0.01744,0.14297 0.06032,0.25836 0.142724,0.38009 0.115753,0.2147 0.142862,0.41058 0.171784,0.6512 0.08615,0.30041 0.260384,0.56664 0.339733,0.86841 0.124883,0.32525 0.257005,0.64267 0.349176,0.97958 0.158247,0.40441 0.290697,0.8186 0.48896,1.20613 0.171516,0.45587 0.366218,0.9019 0.517258,1.36557 0.125876,0.46479 0.27945,0.92697 0.479004,1.36493 0.240988,0.49756 0.438801,1.01616 0.699027,1.50553 0.205536,0.48186 0.449278,0.95056 0.605298,1.45102 0.183308,0.58567 0.305837,1.19029 0.380262,1.79919 0.08294,0.53258 0.11971,1.05946 0.09685,1.59938 0.0019,0.48443 7.7e-5,0.9689 -0.01389,1.45318 -0.02275,0.55361 -0.06081,1.10958 -0.209187,1.64628 -0.156702,0.54075 -0.277331,1.09297 -0.498086,1.61278 -0.17212,0.56073 -0.405633,1.11104 -0.710682,1.61216 -0.278201,0.50176 -0.62706,0.95157 -0.970475,1.40971 -0.435886,0.48204 -0.796174,1.04264 -1.328238,1.43302 -0.59717,0.47893 -1.145087,1.00695 -1.711486,1.52184 -0.60103,0.51661 -1.230151,0.99757 -1.831983,1.51296 -0.619374,0.47773 -1.301549,0.86937 -1.874457,1.40511 -0.590857,0.49911 -1.21399,0.94969 -1.86536,1.36662 -0.637323,0.41893 -1.237776,0.89322 -1.909305,1.26081 -1.654995,1.20214 -3.499508,2.12552 -5.322921,3.04553 -0.669333,0.2895 -1.328531,0.6128 -2.028659,0.82195 -0.671655,0.20412 -1.348393,0.39779 -2.034775,0.54562 -0.725059,0.12814 -1.448885,0.26592 -2.17868,0.36418 -0.713039,0.10666 -1.428197,0.17819 -2.144482,0.25806 -0.65445,0.0874 -1.306679,0.12974 -1.967685,0.0989 -0.612656,-0.009 -1.226479,-0.021 -1.836052,-0.0884 -0.529503,-0.0724 -1.054447,-0.19608 -1.591705,-0.18777 -0.552415,-0.0217 -1.10477,-0.0601 -1.648817,-0.1639 -0.602916,-0.10772 -1.209251,-0.15993 -1.8159,-0.24063 -0.602088,-0.11826 -1.193126,-0.28712 -1.796163,-0.40224 -0.647349,-0.15737 -1.300455,-0.28874 -1.931649,-0.50673 -0.66116,-0.1908 -1.305794,-0.43285 -1.94436,-0.68866 -0.631863,-0.24214 -1.261442,-0.48931 -1.904235,-0.70186 -0.616129,-0.24078 -1.218269,-0.51785 -1.819718,-0.79282 -0.551203,-0.29599 -1.098068,-0.59954 -1.626819,-0.93459 -0.774783,-0.48408 -1.579144,-0.91795 -2.372913,-1.36968 0,0 3.333821,-2.14846 3.333821,-2.14846 z"
       inkscape:connector-curvature="0" />
    <path
       style="opacity:1;fill:#ffff00;fill-opacity:1;stroke:#000000;stroke-width:0.26458332;stroke-opacity:1"
       id="path40"
       d="m 10.275313,271.57 c -0.207268,0.74665 -0.269467,1.51811 -0.105753,2.2769 0.11213,0.42541 0.299655,0.81048 0.558876,1.16349 0.245816,0.27026 0.473771,0.5588 0.724278,0.82335 0.202189,0.15493 0.385901,0.3361 0.618972,0.44764 0.150698,0.0532 0.266135,0.16041 0.247664,-0.0671 1.157552,-0.61131 2.479212,-1.30275 -3.0789912,1.76923 -0.053026,0.0293 0.084122,-0.0872 0.1250338,-0.13192 0.1359575,-0.1485 0.095568,-0.10373 0.2141956,-0.28608 0.2996806,-0.50416 0.4974038,-1.06273 0.7068548,-1.60865 0.293941,-0.74357 0.514779,-1.51037 0.726391,-2.28035 0.191451,-0.81137 0.298749,-1.64103 0.420911,-2.46534 0.102745,-0.82217 0.260633,-1.63471 0.3498,-2.4588 0.07102,-0.76943 0.08062,-1.54263 0.0859,-2.31476 0.0067,-0.73727 0.02355,-1.47242 -0.06553,-2.20521 -0.06388,-0.7036 -0.174622,-1.3985 -0.292823,-2.09443 -0.121623,-0.62813 -0.332514,-1.23252 -0.490735,-1.8508 -0.141867,-0.53244 -0.277042,-1.06709 -0.421863,-1.5988 -0.113132,-0.44187 -0.254111,-0.87233 -0.406794,-1.30141 -0.10382,-0.27841 -0.165838,-0.56967 -0.1980776,-0.86438 0.00839,-0.0536 -0.06219,-0.54309 0.00553,-0.38899 -0.1007697,0.11798 -0.1892131,-0.16471 -0.2249519,-0.24604 -0.024744,-0.0599 -0.041895,-0.1224 -0.061229,-0.18412 -0.5935366,-1.26318 3.4846895,-3.04827 3.5625265,-1.58637 -0.0031,0.0502 0.0361,0.16672 -0.03336,0.0106 0.111935,0.11531 0.183439,0.28434 0.282751,0.42013 0.165224,0.31665 0.363074,0.61405 0.551208,0.91731 0.281033,0.49619 0.546574,1.00021 0.786571,1.51755 0.313651,0.68186 0.684792,1.33296 1.026676,1.99986 0.396967,0.72345 0.741772,1.47146 1.074706,2.22561 0.30492,0.71232 0.567925,1.44094 0.847127,2.16329 0.247715,0.65351 0.527742,1.29401 0.799096,1.93793 0.27699,0.61564 0.621316,1.19442 0.974305,1.76849 0.317011,0.53166 0.597124,1.08324 0.888342,1.629 0.249464,0.49595 0.419497,1.02836 0.60001,1.5526 0.09825,0.40087 0.177214,0.80009 0.302208,1.1938 0.08915,0.2633 0.141227,0.53689 0.169164,0.81289 0.01055,0.0691 0.07458,0.10409 0.13633,0.11618 -0.16503,-1.32729 -2.29264,1.37933 -3.413773,2.10873 -0.157514,-0.16804 -0.288618,-0.36562 -0.410267,-0.56343 -0.202869,-0.31534 -0.423185,-0.61662 -0.641119,-0.9219 -0.309289,-0.38147 -0.663117,-0.70851 -1.031339,-1.03175 -0.475662,-0.45531 -1.045283,-0.78293 -1.609477,-1.11257 -0.669767,-0.34454 -1.346254,-0.67073 -2.043096,-0.95708 -0.697796,-0.32472 -1.434104,-0.53873 -2.158739,-0.78925 -0.6012938,-0.16778 -1.182649,-0.39414 -1.7953652,-0.51906 -0.401968,-0.0291 -0.7691295,-0.17466 -1.1451124,-0.30847 -0.2927107,-0.0475 -0.3782124,-0.0166 -0.5541426,-0.27822 -0.059553,-0.1205 -0.1445141,-0.27443 -0.1502116,-0.4078 -8.467e-4,-0.0201 0.040846,-0.0114 0.054415,-0.0263 0.026353,-0.0289 0.040633,-0.0668 0.060949,-0.10027 1.1012625,-0.93218 0.559585,-0.48215 3.6202738,-2.06937 1.129821,-0.58591 -4.3643109,2.61338 -3.3191282,1.88717 1.3329533,-0.92615 2.4239095,-1.85552 3.9024962,-2.12269 0.480401,-0.1099 0.954206,-0.23162 1.448237,-0.28854 0.563124,-0.0541 1.129314,-0.0511 1.69436,-0.0526 0.59872,0.0204 1.20425,-0.0513 1.796239,0.0507 0.530028,0.091 1.052561,0.15271 1.56774,0.30624 0.37094,0.11307 0.753382,0.15477 1.138995,0.17139 0.327759,0.009 0.655708,0.007 0.98354,0.004 0.131856,-0.0309 0.294225,0.0365 0.423896,-0.002 0.109137,-0.032 0.245585,-0.1303 0.357822,-0.17568 0.04018,-0.031 0.164685,-0.11807 0.120533,-0.093 -1.099282,0.62329 -4.397788,2.49143 -3.287198,1.88852 1.19989,-0.65139 2.353719,-1.38549 3.555169,-2.034 1.110678,-0.59951 -2.185606,1.26305 -3.282759,1.88696 -0.09203,0.0523 0.17319,-0.12189 0.261685,-0.18001 1.060495,-0.27628 2.573367,-2.09053 4.103234,-2.1096 0.213592,-0.0283 0.300216,0.0456 0.451482,0.19269 0.213287,0.12552 0.372475,0.37032 0.538063,0.55818 0.234387,0.27221 0.509125,0.50748 0.722532,0.79658 0.192964,0.24431 0.369681,0.45688 0.662005,0.57516 0.208779,0.0867 0.371732,0.2269 0.592887,0.28498 0.0257,0.006 0.05425,0.0307 0.07709,0.0175 0.06278,-0.0361 0.09153,-0.16467 0.179648,-0.20386 1.109787,-0.49356 -2.097824,1.22491 -3.154824,1.82322 0.379034,-0.19653 0.541512,-0.57574 0.693908,-0.95213 0.253463,-0.61365 0.462451,-1.24406 0.689721,-1.8675 0.288228,-0.73841 0.514449,-1.49612 0.727287,-2.2589 0.201562,-0.78449 0.389121,-1.56912 0.493788,-2.37284 0.08154,-0.70436 0.09026,-1.41392 0.09453,-2.12208 0.007,-0.52649 -0.06955,-1.05858 -0.20605,-1.56694 -0.115353,-0.33579 -0.186464,-0.6835 -0.343984,-1.00213 -0.1257,-0.14667 -0.115049,-0.38393 -0.260051,-0.50821 -0.04669,-0.0381 -0.09441,-0.0601 -0.143428,-0.0482 0.612945,1.35932 2.70302,-3.44919 3.547095,-1.81858 0.184708,0.19524 0.326699,0.46494 0.440941,0.70972 0.201938,0.39763 0.384223,0.80431 0.55685,1.21552 0.21862,0.60591 0.432747,1.2141 0.641766,1.82366 0.268223,0.70395 0.514228,1.41596 0.768982,2.12498 0.248441,0.68616 0.481989,1.37918 0.822767,2.02608 0.265924,0.43302 0.535119,0.87238 0.881771,1.24626 0.181055,0.20097 0.411583,0.27731 0.671507,0.28999 0.900833,-0.84326 4.184206,-2.41807 -3.134883,1.72505 -0.0455,0.0258 0.09729,-0.041 0.139125,-0.0724 0.101085,-0.0758 0.20069,-0.20892 0.27921,-0.30419 0.373705,-0.60519 0.639744,-1.2746 0.905775,-1.93289 0.403696,-0.94959 0.710067,-1.93601 0.987536,-2.92859 0.264951,-0.93587 0.556403,-1.86429 0.748662,-2.81849 0.12601,-0.72001 0.196747,-1.44821 0.114639,-2.17585 -0.0596,-0.44885 -0.182383,-0.90309 -0.413803,-1.29511 -0.17366,-0.25486 -0.417553,-0.44324 -0.678657,-0.60279 -0.146362,-0.0894 -0.327353,-0.11364 -0.497522,-0.11725 -1.344351,0.39987 2.958766,-3.23053 3.365862,-1.82996 0.07742,0.31385 0.247298,0.58636 0.393788,0.87081 0.280805,0.49795 0.53423,1.00943 0.754732,1.53683 0.314459,0.67779 0.615211,1.36065 0.909695,2.04714 0.353788,0.67716 0.693809,1.36302 1.111269,2.00424 0.347027,0.55192 0.753705,1.02725 1.261242,1.43291 0.336034,0.29952 0.746204,0.3949 1.181417,0.43408 0.03794,0.002 0.292659,0.0189 0.332018,0.0119 0.163113,-0.0293 0.325427,-0.1304 0.457026,-0.22332 -1.085716,0.61985 -2.171431,1.2397 -3.257146,1.85956 0.474512,-0.34162 0.753187,-0.84894 1.005229,-1.36164 0.36494,-0.80531 0.581081,-1.66042 0.78077,-2.51803 0.211531,-0.91694 0.265874,-1.85646 0.300162,-2.79348 -0.0044,-0.79967 -0.125606,-1.58534 -0.333336,-2.35539 -0.179464,-0.52939 -0.367268,-1.08395 -0.715814,-1.52881 -0.208711,-0.24657 -0.437687,-0.43159 -0.747445,-0.5211 -0.05608,-0.007 -0.169056,-0.056 -0.184952,0.0183 5.712071,-3.44938 2.994946,-2.98383 3.435985,-1.37499 0.0983,0.39424 0.305221,0.75381 0.49744,1.10903 0.259197,0.52259 0.559483,1.02595 0.885013,1.50989 0.331245,0.55866 0.728464,1.07249 1.102429,1.60232 0.370917,0.44757 0.810006,0.83252 1.272421,1.18207 0.384437,0.34421 0.884163,0.46888 1.35228,0.655 0.386712,0.154 0.682278,0.004 1.029375,-0.15025 -5.821085,3.36639 -3.379798,2.32818 -2.43014,0.99079 0.39206,-0.55421 0.665917,-1.16757 0.902224,-1.80023 0.249391,-0.68013 0.306467,-1.40213 0.341863,-2.11922 0.0473,-0.74317 -0.08263,-1.47971 -0.229984,-2.20464 -0.150545,-0.67215 -0.418693,-1.30446 -0.691759,-1.93338 -0.175596,-0.5109 -0.411181,-0.99235 -0.662135,-1.46908 -0.09343,-0.28136 -0.303662,-0.48947 -0.434859,-0.74985 -0.158009,-0.21032 -0.145018,0.0389 -0.112546,0.0221 2.760094,-1.42633 4.431657,-2.62893 3.312959,-1.82648 -0.10219,-0.0926 0.133853,0.40061 0.156785,0.4491 0.16941,0.36625 0.367628,0.71758 0.539046,1.08329 0.2008,0.48354 0.485812,0.90921 0.791427,1.33075 0.347429,0.4368 0.704892,0.87453 1.131765,1.23618 0.377841,0.35942 0.798016,0.67124 1.191186,1.01417 0.325422,0.19746 0.635358,0.43327 0.974699,0.60538 0.32113,0.17215 0.263488,0.046 0.539398,-0.0839 -6.278163,3.40919 -3.742447,2.47776 -2.765356,1.39345 0.277828,-0.24744 0.482494,-0.57004 0.65138,-0.89908 0.240723,-0.38302 0.404606,-0.80686 0.559964,-1.22975 0.195427,-0.50388 0.330179,-1.0294 0.472784,-1.55022 0.147212,-0.57521 0.162174,-1.17026 0.256286,-1.75454 0.125109,-0.66325 0.186299,-1.32895 0.130567,-2.0016 -0.08501,-0.6393 -0.134276,-1.28118 -0.163113,-1.92518 -0.02768,-0.50041 -0.02558,-1.00165 -0.03101,-1.50259 0.0222,-0.3031 -0.06629,-0.59062 -0.168826,-0.87139 -0.0079,-0.0296 -0.05541,-0.1325 -0.05965,-0.14153 0.0044,0.008 0.0088,0.0157 0.01318,0.0236 5.090337,-2.78302 3.043729,-2.9187 3.587977,-1.37896 0.162256,0.35243 0.385376,0.67225 0.571072,1.01294 0.324186,0.54725 0.553481,1.1423 0.822285,1.71724 0.35814,0.78769 0.680955,1.59041 1.014402,2.38863 0.363566,1.00719 0.753591,2.00393 1.114771,3.01194 0.418875,1.04773 0.765162,2.12312 1.20767,3.16124 0.439264,0.96979 0.821938,1.9612 1.28729,2.91934 0.441592,0.9088 0.890265,1.8156 1.307648,2.7357 0.376549,0.73108 0.707517,1.48746 1.091274,2.2145 0.274939,0.46291 0.420547,0.99306 0.690475,1.45675 0.115678,0.20443 0.233659,0.40759 0.355407,0.60848 0.782944,1.19188 -3.052014,3.09293 -3.567827,1.70067 -0.23083,-0.36881 -0.412351,-0.76207 -0.586526,-1.16027 -0.329102,-0.81473 -0.590986,-1.65619 -0.860843,-2.49227 -0.407598,-1.11488 -0.706625,-2.26406 -0.974029,-3.41924 -0.326321,-1.2634 -0.486336,-2.55804 -0.672595,-3.84684 -0.127359,-1.12249 -0.299262,-2.23472 -0.654266,-3.30872 -0.275641,-0.98518 -0.722736,-1.90312 -1.147911,-2.82878 -0.417312,-0.89474 -0.822767,-1.79218 -1.095748,-2.74226 -0.243258,-0.94367 -0.284782,-1.91707 -0.315206,-2.88578 -0.0065,-0.87377 0.170891,-1.72527 0.416848,-2.55855 0.187899,-0.59517 0.446958,-1.1603 0.760878,-1.69835 0.193519,-0.32437 0.42187,-0.62983 0.677815,-0.90756 1.263526,-0.87065 2.500162,-2.267 4.044786,-2.31141 0.246512,-0.0308 0.494755,0.13497 0.681657,0.28919 0.391768,0.22671 0.679262,0.59878 0.945586,0.95702 0.39529,0.5207 0.757232,1.06415 1.073629,1.63621 0.366998,0.61184 0.717733,1.22803 1.031391,1.86877 0.286454,0.59202 0.535845,1.19891 0.773483,1.81182 0.204755,0.52517 0.271475,1.08255 0.317367,1.63972 0.06162,0.5208 -0.102912,1.00752 -0.29151,1.4837 -0.248832,0.58283 -0.610269,1.06695 -1.07466,1.49203 -1.738747,1.25776 -3.642876,2.2997 -5.600774,3.1786 -0.622774,0.28119 -0.28938,0.14569 -1.0037,0.39776 0,0 3.08851,-2.42006 3.08851,-2.42006 v 0 c 0.709769,-0.28917 0.37619,-0.14415 1.002668,-0.4306 0.340979,-0.16004 0.48532,-0.22283 0.816134,-0.39738 0.134453,-0.0709 0.530918,-0.29638 0.39965,-0.21971 -5.42417,3.16831 -3.562836,2.04586 -2.371399,1.3814 0.466725,-0.38539 0.876615,-0.76674 1.133829,-1.32875 0.201652,-0.40559 0.393941,-0.8483 0.370827,-1.30922 -0.0245,-0.52143 -0.0719,-1.04461 -0.252862,-1.53892 -0.227904,-0.60423 -0.470458,-1.20122 -0.748049,-1.78459 -0.312578,-0.6338 -0.658685,-1.24564 -1.022604,-1.85161 -0.307448,-0.55546 -0.669269,-1.07769 -1.055222,-1.58141 -0.252092,-0.32604 -0.524287,-0.63501 -0.892497,-0.83198 -0.204632,-0.0841 -0.287317,-0.10652 -0.484299,-0.003 -1.471096,1.01571 4.589698,-2.93573 2.833994,-1.57703 -0.360301,0.11213 -0.516837,0.48041 -0.766635,0.73825 -0.293026,0.53201 -0.625822,1.04073 -0.811718,1.62675 -0.25463,0.79776 -0.471355,1.60468 -0.484486,2.44951 0.01818,0.93845 0.05015,1.88285 0.266311,2.80068 0.257034,0.93429 0.658241,1.81308 1.066212,2.69025 0.42236,0.94166 0.88895,1.86651 1.163548,2.86684 0.369334,1.09514 0.556138,2.2298 0.675248,3.37828 0.178335,1.27913 0.330499,2.56553 0.656175,3.81805 0.26017,1.14377 0.564152,2.27905 0.971743,3.38012 0.271455,0.82036 0.534278,1.64676 0.870601,2.44293 0.178644,0.40693 0.383625,0.79581 0.61473,1.17496 0.473676,1.353 -2.773934,3.53328 -3.386886,2.22721 -0.107744,-0.20834 -0.220059,-0.41431 -0.335005,-0.61876 -0.261911,-0.4746 -0.416536,-1.00386 -0.679722,-1.47948 -0.376643,-0.73953 -0.712031,-1.5013 -1.085319,-2.24285 -0.41067,-0.91888 -0.860904,-1.82131 -1.297236,-2.72824 -0.469315,-0.96383 -0.854493,-1.96165 -1.294516,-2.93846 -0.442053,-1.04657 -0.793171,-2.12754 -1.216991,-3.18146 -0.360034,-1.00034 -0.750631,-1.98827 -1.114242,-2.98737 -0.337751,-0.78955 -0.658802,-1.58586 -1.018665,-2.36586 -0.274015,-0.56389 -0.500239,-1.1517 -0.826984,-1.68853 -0.1983,-0.35868 -0.440603,-0.69095 -0.616434,-1.06183 -0.599887,-1.70531 0.07759,-0.87513 3.344571,-2.6081 0.0055,0.009 0.0109,0.0184 0.01633,0.0276 0.03539,0.0686 0.06101,0.14146 0.08577,0.21456 0.107413,0.32166 0.229317,0.65452 0.216289,0.99697 -0.0039,0.4986 7.94e-4,0.99727 0.01087,1.49578 0.02222,0.63813 0.06588,1.27475 0.150694,1.90798 0.07218,0.70288 0.05001,1.39514 -0.0797,2.09226 -0.10736,0.59273 -0.130443,1.1889 -0.237609,1.7814 -0.128461,0.53671 -0.289148,1.06614 -0.450369,1.59319 -0.178197,0.42806 -0.300741,0.87902 -0.522803,1.28862 -0.227362,0.31472 -0.351078,0.6983 -0.605692,0.9986 -0.352245,0.27085 0.08008,-0.0824 -0.235048,0.24606 -1.033143,1.07669 -2.379993,1.53598 -3.837289,2.32396 -0.280959,0.0644 -0.497158,-0.0492 -0.733719,-0.19869 -0.336703,-0.22091 -0.690565,-0.41575 -1.001141,-0.67427 -0.397253,-0.33961 -0.814345,-0.65662 -1.190321,-1.02018 -0.43335,-0.39797 -0.816959,-0.84588 -1.17852,-1.30956 -0.320125,-0.44102 -0.612997,-0.89276 -0.8338,-1.39283 -0.170233,-0.36187 -0.369062,-0.70843 -0.544711,-1.06727 -0.129101,-0.24518 -0.225883,-0.5103 -0.326318,-0.76819 0.271139,-1.57696 2.986521,-3.242 3.909634,-1.82269 0.117467,0.26132 0.33869,0.46672 0.416142,0.74952 0.242623,0.49054 0.49123,0.9772 0.662172,1.49918 0.278903,0.65566 0.557747,1.31151 0.721979,2.00801 0.158322,0.7527 0.306187,1.51773 0.278228,2.29072 -0.03108,0.74785 -0.06486,1.50534 -0.291401,2.22468 -0.219906,0.65324 -0.463479,1.30223 -0.854237,1.87573 -0.950425,1.68091 -2.374812,2.08627 -4.339873,3.06283 -0.405495,0.12276 -0.808299,0.0844 -1.194588,-0.0915 -0.49897,-0.20146 -1.007184,-0.3789 -1.411113,-0.75262 -0.476099,-0.39033 -0.947878,-0.79337 -1.324536,-1.28428 -0.375581,-0.53217 -0.774888,-1.04812 -1.107747,-1.60912 -0.33292,-0.49315 -0.642392,-1.00505 -0.910979,-1.53603 -0.210417,-0.37628 -0.434985,-0.75954 -0.550867,-1.17636 -0.561915,-1.75178 1.090014,-1.63744 3.295964,-2.90423 0.07906,0.0618 0.183621,0.0783 0.269979,0.12752 0.337584,0.17112 0.608875,0.4235 0.848934,0.71523 0.35493,0.50044 0.585576,1.08245 0.768882,1.66497 0.23346,0.80495 0.350932,1.62975 0.37901,2.46798 -0.02836,0.95794 -0.07073,1.92082 -0.271468,2.86102 -0.186722,0.87906 -0.397743,1.75039 -0.728086,2.58796 -0.241453,0.54746 -0.483827,1.09098 -0.908007,1.52554 -1.452563,0.85438 -2.749225,2.40489 -4.485267,2.11992 -0.480486,-0.1007 -0.921383,-0.27934 -1.28715,-0.61873 -0.527865,-0.44112 -0.943253,-0.96546 -1.314096,-1.54448 -0.426942,-0.66142 -0.780031,-1.36538 -1.143884,-2.06236 -0.296796,-0.68692 -0.594841,-1.37236 -0.919138,-2.04705 -0.215024,-0.51708 -0.472718,-1.01434 -0.752888,-1.49897 -0.15925,-0.30176 -0.350763,-0.58792 -0.435419,-0.92213 -0.490168,-1.39538 2.064683,-2.90007 3.40493,-2.39298 0.206894,0.059 0.408451,0.13395 0.58106,0.26681 0.296375,0.21299 0.575177,0.45055 0.770858,0.76322 0.245917,0.44378 0.405426,0.93963 0.473326,1.44222 0.100807,0.76805 0.05006,1.52984 -0.07482,2.29476 -0.181414,0.9676 -0.463349,1.90929 -0.749395,2.85049 -0.262967,1.00349 -0.564259,2.00055 -0.954995,2.96219 -0.26103,0.67429 -0.536885,1.34195 -0.84405,1.99639 -0.776899,1.43931 -2.557458,2.80259 -4.199658,2.53465 -0.313846,-0.0929 -0.588144,-0.27252 -0.802724,-0.52118 -0.349959,-0.41213 -0.647753,-0.8672 -0.914839,-1.33667 -0.350579,-0.66409 -0.588016,-1.37489 -0.84617,-2.07847 -0.249437,-0.71224 -0.503901,-1.42277 -0.775526,-2.12669 -0.204002,-0.59963 -0.426295,-1.19325 -0.634414,-1.79112 -0.181437,-0.40368 -0.35922,-0.80877 -0.565215,-1.20063 -0.113921,-0.25085 -0.273653,-0.4777 -0.443825,-0.69309 -0.653214,-1.35232 2.301524,-3.52051 3.248399,-2.39547 0.08125,0.0699 0.169479,0.1322 0.238191,0.21569 0.147513,0.18599 0.198035,0.39711 0.306927,0.6054 0.170932,0.34217 0.250563,0.70649 0.367925,1.07056 0.164607,0.53596 0.236381,1.11593 0.248986,1.67415 -0.0065,0.72295 -0.01416,1.44745 -0.08443,2.16754 -0.09412,0.82226 -0.266988,1.62343 -0.469114,2.42509 -0.208605,0.77297 -0.426836,1.54163 -0.706514,2.2919 -0.247153,0.61458 -0.432967,1.25186 -0.669573,1.8707 -0.171997,0.40195 -0.27493,0.85318 -0.592484,1.17254 -1.198714,0.68639 -2.397437,1.37276 -3.596142,2.05916 -0.08883,0.0509 -0.186122,0.0946 -0.293657,0.0714 -0.0063,-0.001 -0.198508,-0.0786 -0.235281,-0.0934 -0.211365,-0.0981 -0.399984,-0.23853 -0.615909,-0.32837 -0.305568,-0.18759 -0.531782,-0.44833 -0.751321,-0.72865 -0.214283,-0.27414 -0.4819,-0.50157 -0.706655,-0.76723 -0.159509,-0.17473 -0.302003,-0.36829 -0.509913,-0.48802 -0.04842,-0.0159 -0.180985,0.0816 -0.276885,0.0581 -1.255625,0.28789 -3.793714,2.83747 2.822441,-1.71459 -0.05457,0.0313 -0.220657,0.12641 -0.271909,0.15634 -1.179588,0.68895 -2.401838,1.30966 -3.538291,2.06764 -1.049689,0.70012 4.378088,-2.51072 3.2775,-1.8937 -1.188984,0.66659 -2.35635,1.37115 -3.542713,2.04239 -0.04802,0.0272 -0.104949,0.0341 -0.157424,0.0511 -0.285121,0.0863 -0.565479,0.0754 -0.8621,0.069 -0.332569,-0.003 -0.665504,-0.004 -0.997182,-0.0319 -0.400126,-0.0427 -0.792951,-0.12099 -1.177837,-0.24021 -0.499637,-0.13078 -1.017395,-0.17302 -1.525955,-0.25881 -0.58733,-0.0314 -1.176236,-0.0101 -1.764181,-0.0134 -0.556901,0.008 -1.1160409,0.017 -1.6679009,0.0998 -0.4812829,0.0843 -0.9508556,0.21673 -1.4232202,0.33938 -0.1065908,0.0445 -0.4111307,0.21045 -0.3111518,0.15258 1.0948153,-0.63366 4.4267029,-2.44453 3.2845639,-1.90077 -1.2268261,0.58406 -2.3595936,1.34806 -3.5393908,2.02209 3.3483108,-1.92864 4.4923978,-2.41902 3.2302498,-1.87355 -0.03077,0.004 -0.06692,-0.005 -0.0923,0.0127 -0.02171,0.0153 -0.008,0.0882 -0.03031,0.0737 -0.118988,-0.0771 -0.138828,-0.25367 -0.112952,-0.11491 0.0052,-0.0917 0.342447,0.0629 0.417513,0.0816 0.359374,0.12977 0.725197,0.21471 1.101274,0.28237 0.610492,0.15799 1.204642,0.3726 1.807246,0.55755 0.736219,0.2413 1.463757,0.50312 2.173555,0.81548 0.703295,0.30694 1.401401,0.627 2.073928,0.99738 0.585606,0.34213 1.160414,0.70456 1.658155,1.17002 0.392686,0.33997 0.760167,0.69839 1.085726,1.10454 0.225964,0.30855 0.451649,0.61664 0.662653,0.93539 0.09905,0.14892 0.197122,0.3129 0.332787,0.42887 -5.43007,3.96663 -2.203936,3.19126 -3.317693,2.20953 -0.13959,-0.1255 -0.253204,-0.27167 -0.317693,-0.45068 -0.01043,-0.2494 -0.04039,-0.49843 -0.117291,-0.73712 -0.12005,-0.39427 -0.224981,-0.78328 -0.291345,-1.19073 -0.16285,-0.50694 -0.328886,-1.01815 -0.558515,-1.4985 -0.288985,-0.53815 -0.562361,-1.08446 -0.873586,-1.61054 -0.362307,-0.59149 -0.712443,-1.18926 -1.000134,-1.82146 -0.276969,-0.64609 -0.556576,-1.29175 -0.80123,-1.95088 -0.279862,-0.71602 -0.538038,-1.44013 -0.836446,-2.14902 -0.3294,-0.7473 -0.664875,-1.49119 -1.063216,-2.20537 -0.344575,-0.67002 -0.72225,-1.32265 -1.042569,-2.00568 -0.240563,-0.499 -0.494646,-0.99048 -0.774274,-1.46883 -0.188576,-0.29318 -0.384922,-0.5817 -0.553727,-0.88684 -0.095802,-0.13366 -0.1655337,-0.2825 -0.2801105,-0.40024 -0.074076,-0.11893 -0.1115501,-0.14112 -0.096232,-0.24386 0.059551,-1.46435 4.3540825,-0.88345 3.5582615,-2.08196 -0.0045,0.0215 -0.01162,0.0579 0.0019,0.0868 0.0035,0.0132 0.03985,0.0342 0.181265,0.1714 0.108623,0.18759 0.08904,0.35388 0.08553,0.56946 0.01185,0.26522 0.04957,0.52906 0.138555,0.78058 0.148624,0.43917 0.303223,0.87293 0.408738,1.32569 0.158555,0.53181 0.275411,1.07838 0.421433,1.61354 0.155373,0.63011 0.373263,1.24327 0.502321,1.88089 0.115254,0.70187 0.243993,1.39834 0.299556,2.10869 0.09823,0.74956 0.10347,1.49733 0.08739,2.25303 -0.0056,0.78352 -0.0117,1.56802 -0.07452,2.34951 -0.07452,0.83191 -0.233226,1.64847 -0.34519,2.47497 -0.112783,0.83862 -0.240845,1.67648 -0.396251,2.50784 -0.208221,0.78073 -0.424001,1.55795 -0.701437,2.31695 -0.22352,0.55331 -0.410816,1.11956 -0.656476,1.66438 -0.06673,0.11286 -0.116055,0.23575 -0.186742,0.34617 -0.815916,1.27459 -2.483457,1.76216 -3.846779,2.39877 -0.156858,-0.0779 -0.3139895,-0.15608 -0.4642311,-0.24626 -0.243619,-0.16032 -0.4706805,-0.35511 -0.6788152,-0.55787 -0.2498601,-0.28696 -0.5048451,-0.56922 -0.7453032,-0.86443 -0.2793836,-0.40209 -0.4986473,-0.83019 -0.6194192,-1.30821 -0.1959571,-0.80051 -0.1642494,-1.63102 0.021791,-2.43261 0,0 3.5732557,-1.72331 3.5732557,-1.72331 z"
       inkscape:connector-curvature="0" />
    <path
       style="opacity:1;fill:#ff00ff;fill-opacity:1;stroke:#000000;stroke-width:0.26458332;stroke-opacity:1"
       id="path63"
       d="m 44.380358,275.57479 c 0.57367,0.57097 1.113473,1.17356 1.688492,1.74287 0.383863,0.50065 0.878221,0.89392 1.304888,1.35352 0.396975,0.46304 0.803563,0.91734 1.219758,1.36315 0.394507,0.4455 0.786588,0.8932 1.171022,1.34808 0.221483,0.28198 0.490908,0.52416 0.691761,0.82121 0,0 -3.437556,2.01819 -3.437556,2.01819 v 0 c -0.193583,-0.28356 -0.44739,-0.52047 -0.655318,-0.79343 -0.381608,-0.44862 -0.761317,-0.89943 -1.159338,-1.33299 -0.415806,-0.4454 -0.813231,-0.90712 -1.218552,-1.36201 -0.429987,-0.45008 -0.907975,-0.85363 -1.290764,-1.34879 -0.568111,-0.57722 -1.098505,-1.19059 -1.69976,-1.73525 0,0 3.385367,-2.07455 3.385367,-2.07455 z"
       inkscape:connector-curvature="0" />
    <path
       style="opacity:1;fill:#ff00ff;fill-opacity:1;stroke:#000000;stroke-width:0.26458332;stroke-opacity:1"
       id="path65"
       d="m 52.917682,272.69502 c 0.576194,0.79748 1.081357,1.6417 1.65617,2.44007 0.534202,0.62751 1.017667,1.28417 1.486167,1.96134 0.403765,0.48994 0.837242,0.95249 1.264306,1.42116 0.158271,0.15334 0.332058,0.28894 0.500693,0.43039 0,0 -3.374867,2.10709 -3.374867,2.10709 v 0 c -0.179549,-0.153 -0.358391,-0.30707 -0.520163,-0.47934 -0.437533,-0.48147 -0.873998,-0.9646 -1.27786,-1.47508 -0.465217,-0.67618 -0.95418,-1.32621 -1.47378,-1.96179 -0.566793,-0.80432 -1.057891,-1.66074 -1.679371,-2.42574 0,0 3.418705,-2.0181 3.418705,-2.0181 z"
       inkscape:connector-curvature="0" />
    <path
       style="opacity:1;fill:#ff00ff;fill-opacity:1;stroke:#000000;stroke-width:0.26458332;stroke-opacity:1"
       id="path67"
       d="m 43.329328,286.63302 c 0.813972,0.26932 1.615215,0.57956 2.454587,0.76182 0.717529,0.18099 1.429541,0.39098 2.15623,0.53229 0.787714,0.25892 1.617715,0.29966 2.429385,0.4326 0.898388,0.15456 1.807723,0.21193 2.717324,0.24519 0.598829,-0.0297 1.185447,0.12972 1.780167,0.15892 0.176847,0.009 0.681384,-0.0164 0.852924,-0.0235 0.865005,-0.0759 1.738466,-0.0362 2.59947,-0.14752 0.812176,-0.0649 1.606106,-0.23083 2.409114,-0.3561 0.720836,-0.10197 1.43098,-0.26727 2.134118,-0.45472 0.70094,-0.1493 1.398331,-0.35162 2.064814,-0.61691 0.689287,-0.28571 1.365932,-0.59448 2.026806,-0.94093 0.112985,-0.0516 0.227428,-0.10015 0.338955,-0.15484 0.436181,-0.21391 0.216276,-0.11978 0.635069,-0.36069 0.101237,-0.0582 0.409614,-0.22455 0.308567,-0.16598 -3.582209,2.07637 -4.071249,2.38025 -2.80416,1.60263 1.36851,-0.88172 2.816437,-1.63586 4.213006,-2.46867 1.03142,-0.61506 -2.079858,1.20113 -3.120935,1.7997 -0.155784,0.0896 0.307774,-0.18561 0.460465,-0.28035 0.353991,-0.21445 0.661686,-0.46836 0.873627,-0.82557 0.212964,-0.26599 0.30025,-0.49622 0.260501,-0.83156 -0.11131,-0.38111 -0.238834,-0.75681 -0.38195,-1.12714 -0.202215,-0.39883 -0.409233,-0.79841 -0.633727,-1.18527 -0.208907,-0.39454 -0.385284,-0.80565 -0.575773,-1.2094 -0.151302,-0.32907 -0.315508,-0.65202 -0.468482,-0.98017 -0.150251,-0.31281 -0.3287,-0.60753 -0.502176,-0.90759 -0.101338,-0.19117 -0.235263,-0.36224 -0.376685,-0.52505 -0.01775,-0.0241 -0.04273,-0.0423 -0.0669,-0.06 0.135838,0.20659 0.01823,0.12886 -0.110101,0.12313 0,0 3.241009,-2.35182 3.241009,-2.35182 v 0 c 0.151622,-0.006 0.145028,-0.0643 0.271909,0.10983 0.03015,0.0426 0.06366,0.0827 0.09545,0.12412 0.144132,0.18818 0.290539,0.37804 0.399212,0.58932 0.173736,0.31292 0.360113,0.6164 0.518578,0.93781 0.147248,0.3284 0.315158,0.64693 0.457459,0.97779 0.191992,0.39224 0.356314,0.79836 0.561245,1.18415 0.231555,0.40643 0.449974,0.82115 0.664453,1.23705 0.155266,0.39832 0.28521,0.80247 0.430398,1.20484 0.06541,0.40474 0.119785,0.74269 -0.132744,1.09741 -0.266192,0.33651 -0.404538,0.76705 -0.827397,0.97131 -1.264825,0.90243 -3.032591,1.80282 -4.119129,2.42145 -1.043596,0.59419 2.074042,-1.21122 3.115596,-1.80898 0.189412,-0.10871 -0.737674,0.47101 -0.55725,0.34456 -1.658011,1.14364 -3.457374,2.08435 -5.254844,2.99176 -0.670669,0.3348 -1.358525,0.63441 -2.058101,0.90378 -0.68734,0.22925 -1.382329,0.4342 -2.090741,0.58854 -0.708413,0.17807 -1.42781,0.314 -2.150043,0.42243 -0.803085,0.14072 -1.608593,0.2557 -2.420655,0.33278 -0.87019,0.0617 -1.743469,0.076 -2.614615,0.12248 -0.888172,0.009 -1.760656,-0.14062 -2.648124,-0.15789 -0.918449,-0.0454 -1.834052,-0.12663 -2.741671,-0.2789 -0.823973,-0.11128 -1.648682,-0.21644 -2.450775,-0.44572 -0.72408,-0.16245 -1.440209,-0.35894 -2.158783,-0.54396 -0.846007,-0.2201 -1.663051,-0.5347 -2.498259,-0.79156 0,0 3.293584,-2.2169 3.293584,-2.2169 z"
       inkscape:connector-curvature="0" />
    <path
       style="opacity:1;fill:#008000;fill-opacity:1;stroke:#000000;stroke-width:0.26458332;stroke-opacity:1"
       id="path69"
       d="m 95.187663,238.90902 c -0.386604,-0.92711 -0.738291,-1.86618 -1.05981,-2.81772 -0.304543,-1.09917 -0.527941,-2.21783 -0.772797,-3.33106 -0.265457,-1.2875 -0.510498,-2.57914 -0.779518,-3.8659 -0.216271,-1.32883 -0.604446,-2.61868 -0.956091,-3.91559 -0.346281,-1.2797 -0.75412,-2.5404 -1.134054,-3.80983 -0.395597,-1.29553 -0.775145,-2.59661 -1.119037,-3.90682 -0.34176,-1.25219 -0.643358,-2.51462 -0.926179,-3.78129 -0.259297,-1.12941 -0.541499,-2.25327 -0.809781,-3.38052 -0.252159,-0.98097 -0.49535,-1.96522 -0.826924,-2.92285 -0.288829,-0.80946 -0.587354,-1.61542 -0.899239,-2.41619 -0.224496,-0.63272 -0.456139,-1.26143 -0.709493,-1.8832 -0.177888,-0.50432 -0.376272,-1.00037 -0.587082,-1.49156 -0.170595,-0.39827 -0.256299,-0.81813 -0.300196,-1.24685 -0.02548,-0.27458 -0.02813,-0.55053 -0.02971,-0.82605 -7.93e-4,-0.0954 -0.0016,-0.19077 -0.0041,-0.28612 -0.264252,-1.32598 3.134085,-2.97537 3.606954,-1.64832 0.259051,0.13145 0.502015,0.32917 0.747302,0.50122 0.525314,0.38872 0.998672,0.84119 1.469919,1.2923 0.576665,0.5289 1.098063,1.11063 1.63834,1.67462 0.65764,0.70484 1.345938,1.37875 2.039554,2.04839 0.850193,0.79874 1.684469,1.61379 2.544,2.40294 1.044469,0.90356 1.97326,1.92442 2.948644,2.89839 0.982265,0.98129 1.991265,1.93307 3.060845,2.81869 1.01268,0.85005 2.08956,1.62323 3.19043,2.35453 1.02098,0.6969 2.03823,1.39853 3.05226,2.10538 0.92699,0.63391 1.87819,1.23017 2.83347,1.82013 0.83547,0.54288 1.7388,0.96289 2.60714,1.44799 0.71068,0.37166 1.40589,0.7707 2.13113,1.11402 0.45045,0.25743 0.90395,0.50679 1.36625,0.74234 0.27031,0.11198 0.52248,0.2667 0.79124,0.3896 0.12416,0.12915 0.20935,0.28361 0.26523,0.45225 0.53793,1.30123 -3.4625,3.13202 -3.54831,1.69551 -0.0551,-0.2366 0.2321,0.14487 0.0474,0.19619 -0.20249,0.0546 -0.35057,-0.0563 -0.528,-0.13116 -0.33091,-0.13277 -0.6748,-0.23307 -1.00505,-0.37149 -0.60983,-0.17364 -1.20961,-0.38637 -1.82112,-0.55688 -0.94253,-0.28152 -1.89373,-0.5382 -2.85058,-0.76732 -1.26324,-0.33046 -2.52376,-0.67422 -3.79749,-0.96313 -1.66618,-0.40763 -3.35193,-0.7174 -5.03968,-1.01885 -1.779564,-0.27796 -3.567406,-0.49966 -5.36344,-0.63646 -1.686137,-0.19334 -3.379811,-0.29283 -5.075343,-0.34984 -1.530276,-0.0882 -3.055324,-0.002 -4.582322,0.089 -1.476766,0.0753 -2.952938,0.10597 -4.427442,0.2189 -1.347737,0.0968 -2.690715,0.26488 -4.025783,0.47223 -0.991265,0.13803 -1.975099,0.32575 -2.949128,0.55427 -0.61,0.13897 -1.225249,0.18259 -1.82567,0.35403 -0.209212,0.0699 -0.427879,0.12088 -0.628044,0.21588 -0.918917,0.9851 2.075799,-2.38708 3.462533,-2.39299 0.101256,-0.0313 0.251523,0.044 0.346821,7.9e-4 0.03184,-0.0144 0.04561,-0.0529 0.06842,-0.0794 0.03851,-0.0169 0.07703,-0.0338 0.115551,-0.0507 0.424106,-0.0631 0.830006,-0.14936 1.225325,-0.3212 0.727393,-0.31583 1.452759,-0.63568 2.170272,-0.97451 1.185791,-0.5309 2.323859,-1.15796 3.483565,-1.74247 1.578676,-0.85314 3.187581,-1.64585 4.753475,-2.52307 1.69486,-0.92333 3.386656,-1.85185 5.081825,-2.77456 1.654995,-0.84761 3.27465,-1.76115 4.927576,-2.61268 1.492639,-0.7792 2.978973,-1.56928 4.475419,-2.34115 -0.4588,0.27374 1.71593,-0.98873 1.28683,-0.74176 -0.91399,0.52605 -3.654795,2.10621 -2.740196,1.58122 1.310426,-0.75219 2.616956,-1.51117 3.927676,-2.26284 0.18756,-0.10756 0.75438,-0.42286 0.56712,-0.31479 -0.93088,0.53724 -1.86536,1.06821 -2.79804,1.60232 0.92704,-0.56717 1.8067,-1.20488 2.6851,-1.84325 0.63035,-0.48013 1.28509,-0.92564 1.90146,-1.42394 0.55842,-0.4616 1.06041,-0.98483 1.6133,-1.45246 0.48492,-0.39466 0.98471,-0.76892 1.47353,-1.15882 0.32303,-0.25855 0.6506,-0.51352 0.99827,-0.73833 1.18432,-0.8573 2.50958,-1.42044 3.76751,-2.22497 1.07074,-0.6848 -2.19896,1.2753 -3.30042,1.90952 -0.059,0.034 0.1119,-0.0777 0.16511,-0.1201 0.88651,-1.17498 0.0626,-0.10778 3.60845,-2.11587 0.0607,-0.0344 0.15746,-0.0578 0.22773,-0.045 0.3008,0.2319 0.30168,0.41568 0.099,0.62845 -0.16896,0.18496 -0.35201,0.33743 -0.56072,0.47669 -0.33389,0.27953 -0.6505,0.57744 -0.97746,0.86567 -0.44741,0.41128 -0.86955,0.84806 -1.31162,1.2656 -0.61922,0.60849 -1.25577,1.19812 -1.89476,1.78569 -0.74872,0.68157 -1.48256,1.37982 -2.21979,2.07398 -0.77608,0.67256 -1.49817,1.40277 -2.21918,2.13298 -0.66121,0.64054 -1.27001,1.3296 -1.85284,2.04128 -0.55304,0.68614 -1.06953,1.40034 -1.61634,2.09125 -0.54305,0.68559 -1.06992,1.38365 -1.60275,2.07713 -0.522084,0.61082 -0.940467,1.29751 -1.408767,1.94806 -0.432649,0.55885 -0.77978,1.1671 -1.086548,1.8014 -0.276834,0.55428 -0.503399,1.12971 -0.741013,1.70105 -0.186812,0.45496 -0.332743,0.92582 -0.482214,1.39411 -0.175218,0.52295 -0.345773,1.04743 -0.517448,1.5716 -0.17195,0.52773 -0.36893,1.04806 -0.511046,1.5849 -0.144012,0.47882 -0.269218,0.96122 -0.381965,1.44813 -0.154334,0.47706 -0.231841,0.96917 -0.275241,1.46703 -0.01519,0.43456 -0.05982,0.87309 -0.01471,1.30676 0.05672,0.41464 0.187121,0.80579 0.313854,1.20198 0.150532,0.36764 0.344996,0.71374 0.501147,1.07835 0.155824,0.3233 0.358847,0.61993 0.529109,0.93449 0.108291,0.24716 0.256048,0.47093 0.367043,0.71649 0.121605,0.22661 0.257159,0.44272 0.390186,0.66204 0.17217,0.21851 0.267555,0.49847 0.443259,0.71083 0.157237,0.21068 0.249206,0.45339 0.382032,0.67756 0.117957,0.17716 0.177075,0.377 0.282589,0.5593 0.0948,0.21214 0.195894,0.41211 0.312637,0.61352 0.117472,0.18878 0.169325,0.40659 0.197191,0.62458 0.09503,0.18986 0.167272,0.38629 0.215469,0.59367 0.0424,0.2114 0.132048,0.42655 0.240953,0.61269 0.108717,0.24612 0.272251,0.45986 0.400886,0.69379 0.156813,0.18863 0.30266,0.38224 0.449427,0.57706 0.12574,0.19719 0.29402,0.3616 0.40893,0.56464 0.15286,0.14436 0.25398,0.3266 0.34782,0.51276 0.0653,0.12391 0.0803,0.26457 0.0934,0.40176 7.9e-4,0.0322 0.007,0.0635 0.0124,0.0949 0,0 -3.59013,1.78272 -3.59013,1.78272 v 0 c 0.0036,-0.007 0.02381,-0.0287 0.01558,-0.05 0.0047,-0.0848 0.01442,-0.17876 -0.01058,-0.25804 -0.08089,-0.18514 -0.198011,-0.33746 -0.328832,-0.49079 -0.103605,-0.18485 -0.269113,-0.33031 -0.376473,-0.51403 -0.168732,-0.20543 -0.315248,-0.42472 -0.480578,-0.63321 -0.127357,-0.23102 -0.290137,-0.44151 -0.396777,-0.68505 -0.128874,-0.22188 -0.248079,-0.48101 -0.305726,-0.72801 -0.03497,-0.2282 -0.127641,-0.42768 -0.239512,-0.62878 -0.0075,-0.16496 -0.02072,-0.33196 -0.111672,-0.47539 -0.1138,-0.20082 -0.22541,-0.39472 -0.310238,-0.6083 -0.111223,-0.18297 -0.174315,-0.37225 -0.279392,-0.55796 -0.130291,-0.21282 -0.214212,-0.44155 -0.361492,-0.6439 -0.166629,-0.23733 -0.288436,-0.50559 -0.459751,-0.7415 -0.147148,-0.23322 -0.285945,-0.46906 -0.420589,-0.71037 -0.09939,-0.23931 -0.254648,-0.44732 -0.345273,-0.69103 -0.173866,-0.3269 -0.38286,-0.63483 -0.543272,-0.96982 -0.15566,-0.3781 -0.362413,-0.73279 -0.518276,-1.11154 -0.128302,-0.41685 -0.278186,-0.82194 -0.342956,-1.25621 -0.08522,-0.45689 -0.03502,-0.92645 -0.01955,-1.38889 0.03145,-0.51786 0.08026,-1.03746 0.2379,-1.53478 0.15249,-0.47126 0.196755,-0.97712 0.392864,-1.43828 0.118782,-0.55648 0.324588,-1.08235 0.493647,-1.62424 0.198551,-0.51308 0.338902,-1.04791 0.515757,-1.56871 0.179226,-0.46533 0.292441,-0.95436 0.470212,-1.42064 0.259435,-0.56993 0.466514,-1.16046 0.745059,-1.72215 0.31899,-0.64515 0.61078,-1.301 1.062659,-1.8699 0.489019,-0.6413 0.887323,-1.34436 1.410261,-1.95913 0.542616,-0.68685 1.061009,-1.39224 1.598771,-2.08289 0.560994,-0.68106 1.071076,-1.40005 1.621379,-2.08951 0.56474,-0.7362 1.17898,-1.43538 1.84322,-2.08353 0.72137,-0.73241 1.42914,-1.48375 2.21592,-2.14688 0.73524,-0.69574 1.47319,-1.38908 2.21174,-2.08007 0.64452,-0.57146 1.26855,-1.16433 1.88286,-1.76855 0.43525,-0.42181 0.88057,-0.83149 1.29367,-1.27314 0.32059,-0.28948 0.62462,-0.59295 0.96649,-0.85136 0.16291,-0.20432 0.36982,-0.28843 0.55203,-0.46073 0.24564,-0.22899 0.22618,-0.11757 0.4134,0.27238 -0.0486,0.0419 -0.10482,0.0733 -0.16508,0.10017 3.31964,-1.92802 4.55366,-2.15156 3.20604,-1.89531 -0.96079,1.14093 -1.61767,0.91202 -3.66323,2.24104 -1.06532,0.69215 2.19038,-1.28771 3.28996,-1.92401 0.0887,-0.0513 -0.36691,0.25997 -0.24515,0.18525 -0.33415,0.25143 -0.69924,0.45255 -1.02145,0.71934 -0.48987,0.39448 -0.9784,0.7829 -1.48368,1.15671 -0.56589,0.45584 -1.08394,0.95792 -1.61683,1.45186 -0.60853,0.52272 -1.26416,0.97644 -1.90784,1.45327 -0.88224,0.6504 -1.7708,1.29202 -2.69361,1.88429 -1.30133,0.75634 -2.60124,1.51513 -3.904,2.26902 -0.18606,0.10767 -0.7481,0.42389 -0.56239,0.31562 0.92006,-0.53641 3.68894,-2.13067 2.76551,-1.60007 -1.74381,1.00197 -3.472548,2.03551 -5.237726,3.00113 -1.489414,0.77181 -2.973187,1.55428 -4.460537,2.33005 -1.644655,0.86039 -3.269178,1.75843 -4.916749,2.61334 -1.696807,0.92001 -3.385505,1.85463 -5.080455,2.77808 -1.580049,0.87 -3.193219,1.67696 -4.782958,2.52886 -1.166495,0.60019 -2.325605,1.21539 -3.521405,1.75633 -0.731584,0.34058 -1.467602,0.67295 -2.219333,0.96696 -0.412115,0.12134 -0.837372,0.18436 -1.240534,0.33263 -0.200596,0.0581 -0.410128,0.009 -0.618931,0.0239 -1.532359,5.3e-4 1.622485,-2.44681 2.926733,-2.42163 0.210188,-0.0532 0.416647,-0.12093 0.628579,-0.16757 0.598776,-0.13505 1.218096,-0.16564 1.812001,-0.33015 0.973834,-0.21281 1.958531,-0.37689 2.945596,-0.51472 1.337402,-0.19116 2.681009,-0.34877 4.029294,-0.43807 1.475018,-0.1018 2.952645,-0.12653 4.428564,-0.21313 1.532348,-0.0899 3.064338,-0.13855 4.598879,-0.0545 1.695691,0.0702 3.388381,0.18944 5.076156,0.36992 1.80096,0.15398 3.595856,0.3781 5.379776,0.66993 1.69895,0.29861 3.39156,0.62688 5.07137,1.02077 1.2796,0.29797 2.55109,0.6287 3.82459,0.95108 0.96282,0.24061 1.92381,0.49024 2.8765,0.76849 0.62108,0.1834 1.24383,0.36564 1.85738,0.57184 0.34017,0.11459 0.67705,0.23678 1.01501,0.35739 0.14698,0.0437 0.28489,-0.009 0.43914,-0.0145 0.17368,0.0132 0.32004,0.18504 0.2914,0.35981 -0.0248,1.41871 -4.59089,1.52562 -3.54207,2.01486 10e-4,-0.0527 -0.008,-0.12924 -0.0696,-0.14188 -0.26155,-0.13771 -0.51776,-0.28532 -0.78683,-0.40825 -0.44606,-0.24856 -0.89489,-0.49116 -1.33839,-0.74425 -0.71858,-0.36356 -1.42338,-0.75221 -2.12963,-1.13897 -0.87504,-0.48127 -1.77171,-0.92345 -2.60999,-1.46924 -0.95703,-0.59674 -1.90871,-1.20161 -2.83642,-1.84338 -1.01079,-0.70617 -2.0247,-1.40766 -3.04345,-2.10233 -1.1048,-0.74749 -2.18934,-1.52938 -3.207321,-2.39256 -1.070674,-0.90172 -2.089753,-1.85976 -3.07966,-2.84941 -0.965639,-0.97663 -1.900706,-1.98359 -2.945979,-2.87844 -0.865847,-0.7892 -1.70529,-1.60622 -2.563615,-2.40333 -0.697309,-0.67374 -1.392478,-1.34876 -2.057074,-2.05495 -0.538356,-0.5588 -1.066496,-1.12727 -1.637422,-1.65402 -0.461369,-0.43494 -0.926216,-0.87121 -1.451996,-1.22871 -0.309414,-0.20635 -0.659048,-0.39961 -0.883658,-0.69919 -0.551595,-1.35786 3.703436,-2.69503 3.453823,-2.10637 -0.0058,0.0957 -0.0083,0.19163 -0.01027,0.2875 -0.004,0.26649 -0.0078,0.53321 0.0044,0.79955 0.02461,0.39028 0.08061,0.7749 0.232392,1.13893 0.209624,0.49495 0.408898,0.99381 0.583017,1.50275 0.249822,0.62572 0.487736,1.25426 0.699336,1.89415 0.314349,0.80533 0.607759,1.61881 0.896009,2.43386 0.34267,0.96939 0.581491,1.96934 0.837647,2.96429 0.263128,1.13121 0.548931,2.25699 0.80423,3.39008 0.273471,1.26441 0.577678,2.52224 0.910603,3.77226 0.33972,1.3065 0.722464,2.602 1.116174,3.89315 0.378024,1.27321 0.79266,2.53532 1.136076,3.81906 0.358235,1.30272 0.748922,2.5998 0.968142,3.93547 0.271365,1.28374 0.51612,2.57293 0.785945,3.85699 0.248423,1.09837 0.47053,2.20282 0.763969,3.29061 0.309499,0.94848 0.655685,1.88514 1.083421,2.78744 0,0 -3.470529,1.92816 -3.470529,1.92816 z"
       inkscape:connector-curvature="0" />
    <path
       style="opacity:1;fill:#ff6600;fill-opacity:1;stroke:#000000;stroke-width:0.26458332;stroke-opacity:1"
       id="path77"
       d="m 87.967829,255.78476 c 0.775034,0.71973 1.584185,1.3993 2.350723,2.12802 0.833879,0.74771 1.61967,1.55195 2.366105,2.38675 0.734423,0.83033 1.472385,1.65634 2.146139,2.53724 0.518768,0.76153 0.987173,1.55631 1.423865,2.36725 0.289769,0.56161 0.558425,1.13447 0.857425,1.6912 0.14586,0.33312 0.257305,0.67328 0.41656,1.00085 0.07514,0.13119 0.12831,0.26516 0.176638,0.40805 0,0 -3.624751,1.6991 -3.624751,1.6991 v 0 c 0.205917,0.23646 -0.01601,-0.0654 -0.02265,-0.14057 -0.151254,-0.32722 -0.273359,-0.65625 -0.396676,-0.99419 -0.286639,-0.56245 -0.55072,-1.13594 -0.832467,-1.70095 -0.42328,-0.79402 -0.877996,-1.57171 -1.37945,-2.31932 -0.668578,-0.87131 -1.394979,-1.69291 -2.12276,-2.51488 -0.746289,-0.82276 -1.529604,-1.61444 -2.355411,-2.35767 -0.763471,-0.72653 -1.56483,-1.41225 -2.369791,-2.09216 0,0 3.366506,-2.09872 3.366506,-2.09872 z"
       inkscape:connector-curvature="0" />
    <path
       style="opacity:1;fill:#ff6600;fill-opacity:1;stroke:#000000;stroke-width:0.26458332;stroke-opacity:1"
       id="path79"
       d="m 100.53578,249.26509 c 0.95471,0.54221 1.8967,1.10608 2.85406,1.64368 0.99739,0.57769 1.99775,1.14672 2.97684,1.75488 1.05885,0.62384 2.05655,1.34038 3.04785,2.06428 0.94648,0.72307 1.85996,1.49232 2.73765,2.29731 0.75301,0.68064 1.48738,1.37369 2.18645,2.10997 0.52976,0.54519 1.02041,1.1253 1.51538,1.70135 0.32169,0.36427 0.56846,0.78527 0.8489,1.18069 0.15483,0.24408 0.2343,0.50517 0.26288,0.78981 -0.35849,1.41149 -2.79858,1.87262 -3.64701,2.37174 0,0 3.10325,-2.51162 3.10325,-2.51162 v 0 c -6.82888,4.02341 -4.29392,2.16935 -3.06686,1.85421 0.16564,-0.0144 -0.0447,-0.3994 -0.0884,-0.48541 -0.25834,-0.39263 -0.49909,-0.80053 -0.81048,-1.15425 -0.48526,-0.57402 -0.96007,-1.15703 -1.48538,-1.6957 -0.68861,-0.73127 -1.42081,-1.41215 -2.1591,-2.09268 -0.87163,-0.79091 -1.76525,-1.56149 -2.71011,-2.26423 -0.98373,-0.71895 -1.97994,-1.42132 -3.03209,-2.03829 -0.97764,-0.60095 -1.98,-1.15835 -2.96851,-1.74112 -0.957196,-0.53964 -1.894802,-1.11605 -2.88042,-1.60338 0,0 3.31513,-2.18124 3.31513,-2.18124 z"
       inkscape:connector-curvature="0" />
    <path
       style="opacity:1;fill:#ff6600;fill-opacity:1;stroke:#000000;stroke-width:0.26458332;stroke-opacity:1"
       id="path85"
       d="m 88.512895,279.09542 c 0.924343,0.25865 1.873729,0.41387 2.804215,0.64444 0.736323,0.17943 1.480881,0.33043 2.210372,0.53633 0.824823,0.19682 1.628296,0.46663 2.455987,0.6521 0.950444,0.23351 1.897422,0.48229 2.850986,0.70334 1.058394,0.26383 2.113115,0.54365 3.175215,0.79256 1.05848,0.3 2.13539,0.51779 3.20851,0.75503 1.06569,0.22843 2.13349,0.44355 3.20517,0.64285 1.0659,0.14598 2.12675,0.32302 3.19813,0.42664 1.06308,0.0886 2.13047,0.0972 3.19653,0.10441 1.05916,0.0113 2.11433,-0.12533 3.15788,-0.29478 0.98345,-0.13867 1.95817,-0.34425 2.91429,-0.61311 0.8626,-0.28292 1.69521,-0.64093 2.53161,-0.99235 0.75737,-0.38065 1.50645,-0.77073 2.23877,-1.19873 -5.81507,3.60906 -2.56043,1.46124 -1.29738,0.4911 0.61518,-0.4859 1.2028,-1.0074 1.74953,-1.56921 0.47165,-0.59292 0.92018,-1.20436 1.38157,-1.8058 0.4219,-0.54815 0.7764,-1.14206 1.10509,-1.74929 0.3446,-0.5528 0.61982,-1.14204 0.8954,-1.73089 0.27174,-0.59247 0.42949,-1.23293 0.57596,-1.86629 0.14127,-0.64151 0.17107,-1.2982 0.18892,-1.95248 0.0156,-0.64595 0.01,-1.29216 0.007,-1.93822 -0.003,-0.60583 -5.3e-4,-1.21165 -0.002,-1.81748 -0.0114,-0.62645 0.0274,-1.25466 -0.0229,-1.87965 -0.0702,-0.50047 -0.14038,-1.00067 -0.27057,-1.48933 -0.13076,-0.4388 -0.19492,-0.88801 -0.22553,-1.34346 -0.0618,-0.43664 -0.16613,-0.86753 -0.29055,-1.29047 -0.10357,-0.45714 -0.27699,-0.89212 -0.38834,-1.34694 -0.11361,-0.47676 -0.29045,-0.9303 -0.45188,-1.39134 -0.17927,-0.39507 -0.3343,-0.79413 -0.42485,-1.21918 -0.1209,-0.37164 -0.22023,-0.74372 -0.28129,-1.13024 -0.0907,-0.36086 -0.17913,-0.72463 -0.31857,-1.07021 -0.13127,-0.30958 -0.20827,-0.63338 -0.25189,-0.96552 -0.0515,-0.20081 0.0285,-0.43886 -0.0624,-0.62743 -0.0969,-0.14438 -0.15846,-0.31324 -0.20115,-0.48113 -0.0191,-0.11404 -0.0346,-0.2293 -0.0355,-0.34504 0.0226,-0.12591 -0.0716,-0.37356 0.0727,-0.0549 -0.0242,0.0518 -0.097,0.0433 -0.14835,0.0554 -0.0304,0.0327 0.0213,0.0515 -0.0515,0.0159 -0.0948,-0.0133 -0.19141,-0.0116 -0.28704,-0.0122 -0.0934,0 -0.0443,-0.0136 -0.13379,0.074 0,0 3.16415,-2.43464 3.16415,-2.43464 v 0 c 0.16851,0.0119 0.0994,0.0101 0.207,0.0111 0.0914,2.6e-4 0.1851,0.006 0.27504,-0.012 0.0237,-0.0423 0.0309,0.002 0.0719,0.009 0.0949,0.0227 0.18821,0.0432 0.26135,0.11407 0.13328,0.19428 0.14727,0.21203 0.13362,0.41678 -5.3e-4,0.0958 -0.007,0.1917 0.002,0.28746 -0.001,0.13544 0.0744,0.26785 0.14196,0.38056 0.125,0.24855 0.13203,0.47922 0.12597,0.75459 0.0227,0.29948 0.0747,0.59239 0.19223,0.87111 0.1523,0.37656 0.25035,0.76645 0.36499,1.15598 0.0463,0.3834 0.13421,0.75134 0.27257,1.11284 0.0677,0.41252 0.2126,0.79578 0.39211,1.17272 0.15883,0.47581 0.34428,0.93993 0.47028,1.42684 0.0995,0.45091 0.28335,0.87334 0.37635,1.32595 0.13659,0.45134 0.24826,0.9067 0.3353,1.37084 0.0214,0.4297 0.0647,0.85655 0.18591,1.27149 0.14103,0.50959 0.21927,1.02607 0.29204,1.55022 0.0803,0.63489 0.0242,1.27752 0.0416,1.91639 -5.3e-4,0.60542 0.003,1.21081 0.003,1.81623 -9e-5,0.64982 -2.6e-4,1.29964 -0.005,1.94944 -0.0157,0.67555 -0.0319,1.35475 -0.15884,2.02054 -0.13318,0.66026 -0.30678,1.31529 -0.53068,1.95034 -0.29652,0.58432 -0.52456,1.20532 -0.89451,1.75054 -0.33763,0.61361 -0.65352,1.24283 -1.08404,1.7994 -0.44396,0.62194 -0.95646,1.19434 -1.36564,1.84258 -0.51577,0.60502 -1.12843,1.12006 -1.73267,1.63428 -1.6938,1.35069 -3.45458,2.50075 -5.4372,3.46046 -0.73721,0.42033 -1.49555,0.80646 -2.26809,1.15721 -0.84103,0.34791 -1.68087,0.70204 -2.55956,0.94664 -0.96843,0.2431 -1.94747,0.4446 -2.93752,0.57776 -1.05656,0.15386 -2.12338,0.26555 -3.19264,0.24142 -1.07359,-0.0116 -2.14872,-0.028 -3.21793,-0.13492 -1.07618,-0.11947 -2.14679,-0.28677 -3.21631,-0.45408 -1.07251,-0.20687 -2.14354,-0.41871 -3.21071,-0.65164 -1.0771,-0.22916 -2.148175,-0.48063 -3.21302,-0.76215 -1.0601,-0.25921 -2.117669,-0.52865 -3.177349,-0.78957 -0.954323,-0.22938 -1.907445,-0.46383 -2.860979,-0.69642 -0.827146,-0.2051 -1.641002,-0.45931 -2.470574,-0.65538 -0.731422,-0.18178 -1.463928,-0.35835 -2.196898,-0.53364 -0.937454,-0.2157 -1.876918,-0.4255 -2.817133,-0.62779 0,0 3.259677,-2.26107 3.259677,-2.26107 z"
       inkscape:connector-curvature="0" />
  </g>
</svg>
